<svg id="Layer_1" data-name="Layer 1" xmlns="http://www.w3.org/2000/svg" viewBox="0 0 948 873.17"><defs><style>.cls-1{fill:none;stroke:#e0e1e0;stroke-miterlimit:10;stroke-width:2.99px;}.cls-2{fill:#fdfdf6;}.cls-3{fill:#374432;}.cls-4{fill:#55b152;}.cls-5{fill:#2f312e;}.cls-6{fill:#86c44c;}.cls-7{fill:#85c44c;}.cls-8{fill:#afbdaf;}.cls-9{fill:#f7f3a8;}.cls-10{fill:#518c4a;}.cls-11{fill:#54b052;}.cls-12{fill:#aebdb0;}.cls-13{fill:#aed144;}.cls-14{fill:#fcfcf2;}.cls-15{fill:#435a38;}.cls-16{fill:#83b757;}.cls-17{fill:#add144;}.cls-18{fill:#fcfcf1;}.cls-19{fill:#3a4832;}.cls-20{fill:#fafbee;}.cls-21{fill:#7fb653;}.cls-22{fill:#5e7d44;}.cls-23{fill:#dee576;}.cls-24{fill:#d6e267;}.cls-25{fill:#f9faec;}.cls-26{fill:#d7e166;}.cls-27{fill:#d7e163;}.cls-28{fill:#5ab051;}.cls-29{fill:#5baf51;}.cls-30{fill:#56af51;}.cls-31{fill:#58af51;}</style></defs><title>Blink Eyes Position</title><g id="Layer_1-2" data-name="Layer_1"><g id="_2889755697472" data-name=" 2889755697472"><line class="cls-1" x1="286.93" y1="731.75" x2="694.94" y2="731.75"/></g><g id="_2889755697984" data-name=" 2889755697984"><path class="cls-2" d="M387,11.09c36-12.31,75.18,12.38,89.37,45.55,11.89,22.39,12.1,48.19,11.82,72.88-.49,23-9.18,45-21.77,64-12.38,6.33-25.31,11.27-37.83,17,37.21-36.37,54.8-98.4,24.9-144.51-16.14-27.12-53.76-34.49-80.39-19.12-45.28,26.28-65.58,86.37-48.54,135.39-28-13.14-35.26-49.72-23.65-76.56C314.06,64.08,343.26,23.68,387,11.09Z"/><path class="cls-3" d="M291.73,736.06c-1.53.07-4.73.28-6.26.28h0c.42-1.81,2.37-8.34,3.13-10.57l1.6,4.31C290.62,731.54,291.32,734.6,291.73,736.06Z"/><path class="cls-3" d="M471.85,736.34c-1.74-.41-5.36-1.25-7.1-1.74l-1.81-3,6.89-.83Z"/><path class="cls-4" d="M373.1,46.91c26.63-15.37,64.25-8,80.39,19.12,29.9,46.11,12.31,108.14-24.9,144.51-15.16,9.39-32.06,18.22-50.42,16.34-25.59-.42-46.31-21.21-53.61-44.58C307.52,133.28,327.82,73.19,373.1,46.91Zm20-1.19h0C339.51,59.84,313,125.63,329.56,176c5.78,31.29,41.17,54.52,71.7,41.23,55.56-22.32,80.6-101.67,45.55-151.18C434.43,50.24,412.94,40.51,393.06,45.72Z"/><path class="cls-4" d="M712.53,168.4c16.13-12.38,37.76-14.61,57.16-10.3,24.41,7.24,38.67,31.58,44.3,55,8.21,40.68-7.72,83.17-36.51,112.24-13.28,8.42-26.77,18.85-43.25,18.85-31.78,2.5-59.18-24.41-65-54.38C659.05,245.73,675.39,195.17,712.53,168.4Zm22.53-5.08h0C675.88,185,652.52,269.93,691.18,319.09c21.84,28.31,67,21.07,87.34-5.28,30.46-32.27,43.26-83.11,20.8-123.16C788.12,167.35,759.61,155,735.06,163.32Z"/><path class="cls-5" d="M373.65,193.57c-35.6-27.47-22.11-91.1,15.37-110.78l1.53,3.82c4,23.16,34.22,15.37,37.55-4.24,34.36,32,18.64,99-24.75,114.82-.91-1.88-2.71-5.71-3.62-7.58C395.49,173.61,377.34,181.4,373.65,193.57Z"/><path class="cls-5" d="M719.41,310.19c-32.19-29.9-21-92.91,18.36-110.5-.27,10.71,8.9,16,16.9,20.79,9.32-4.73,17.67-11.61,20.17-22.25,36.86,31.85,19.19,100.9-25.45,116-1.95-5.77-3.83-11.54-5.78-17.24-8.69-.21-17.52,1.32-21.62,10.08Z"/><path class="cls-6" d="M728,677.93c31.08-28,79.62-28.24,113.21-4.45,42.56,25.38,49,86.44,24.69,126.7-16.41-14.67-23.16-36.23-36-53.48-10.23,14.68-7.86,36-19.54,50.63a140.89,140.89,0,0,1-34.57,27.54c-3.54-6-7.16-11.82-10.36-17.94-4.38-16.69-7.86-33.8-7.65-51.12,0-7.3-.14-14.67-.28-21.83-16.34,18.08-28.09,40-47.42,55.63-2.86-3.06-5.64-6.05-8.35-9.18C691.88,745.17,698.2,702.06,728,677.93Z"/><path class="cls-6" d="M369.69,678.34c38.53-4.86,77.05,18.43,93.25,53.27l1.81,3.06a167.24,167.24,0,0,1,1.6,67.25c-3.27,2.64-6.47,5.29-9.66,8-18.09-14.61-32.2-33.17-45.28-52.3-.76,8.07-1.11,16.07-1.39,24.2-2.5,19.34-5.91,38.6-9.52,57.79q-6.27,3.35-12.31,6.68c-14.47-8.56-25.59-21.35-35.82-34.43-5.63-14.25-8.83-29.34-14.81-43.46-11.75,18-20.86,37.9-35.88,53.55-15.72-25.73-18.78-57.16-9.95-85.89C304,703.87,336.66,683.42,369.69,678.34Z"/><path class="cls-7" d="M492.15,137c60-15.23,129.91,6.47,162.87,60.64-4.17,10.64-7.3,21.56-11.27,32.27-.55,1.11-1.53,3.48-2,4.66-18.29,30.46-4.38,68.08,7.3,98.54,21.7,48.54,89.36,64.12,129.76,28.93,23.23,15.78,47.64,29.83,70.59,46.11-48.06,4.93-98.13,32.61-145.34,8.69C629.64,389.26,598.2,303.1,522.26,278.34c-63.42-17.45-128.51,3.83-192.56,4a124.56,124.56,0,0,1-85.19-31.22c-28.93-25.66-59.45-49.93-95.82-64.26,45.61,2.79,91.93,13.49,137.06.56,14.47,17.11,17.18,41.86,35.47,56.05,24.41,22.67,62.59,26.08,92.28,12.8C457,233.28,489.44,186.62,492.15,137Z"/><path class="cls-8" d="M657.52,181.05c20.59-28.58,47.64-55.77,83.8-62.24,36.93-6.74,74.2,17.18,88.8,50.7,17.67,38.59,15.79,84.63.28,123.57-5.28,14.33-15.37,26.43-18.84,41.45-2.65-1.18-5.22-2.29-7.79-3.34-27.54,33.8-78.51,58.07-119.13,32.55-43.11-27.4-45.55-83.45-42.9-129.14.48-1.18,1.46-3.55,2-4.66-4.93,25.59,3.76,52.71,25.25,68.29.07-2.09.21-6.33.21-8.41,5.84,30,33.24,56.88,65,54.38,16.48,0,30-10.43,43.25-18.85,45.55-6.81,60.16-57.93,57.86-97.5,2.43-44.92-25.17-97.22-73.57-102.71-43-4.45-76.22,29.21-99.52,61.06C661.07,185,658.7,182.3,657.52,181.05Z"/><path class="cls-9" d="M920.88,441c-17-14.67-37.9-26.36-61.06-25.45-45.2-2.58-87.35,24.82-132.55,15.5-46.45-10.91-84.35-42.49-115.44-77.26-28.44-31.92-61.47-64.25-105.07-72.81-70-13.77-140.2,16.62-210.16,4.25-56.26-12.45-86.72-70.1-140.75-87.49-27.89-11.06-59.32-6.67-86.3,4.94C37.84,220.06,16.7,253.1,10,288.29c6.26,30,11.47,60.84,25.94,88.24,25.45,53.41,72,91.94,116.69,128.73C214,561.17,278.17,620.56,309.4,699.42c46.59-47.5,136.3-31.72,160.43,31.36,65.58-1.53,131.36.21,197-.07,4.1-42.7,14.26-95.06,57.16-115.44,58.28-14.26,123.79-18.71,170-61.61C926.09,526.19,932.14,479.87,920.88,441ZM332.07,421.67h0a75.63,75.63,0,0,1,44.57-16.21c26.29-6.67,53.55-9.52,80.67-6.53,46.18,6.88,86.79,39.29,106,81.36C575,493.16,579.22,512,578.87,529.18,527.83,448.93,424.42,411.51,332.07,421.67Zm508.42,112h0c1.11-9.88,1.94-19.82.41-29.63-52.85,21.7-115.57,29.7-168.22,3-43.46-21.62-68.15-65.44-103.75-96.66C516,363.74,441.25,340.09,371.5,354.56c-29.77,3.41-58.28,13.07-87.83,17.18-64.19,14.32-136-31.3-149.73-95.76-9,4.31-15.92,11.82-23.22,18.36,2.64-21.21,35-38.88,51-25q-6.67,1.25-13.14,2.5c14.32,53.69,74.41,94.23,129.76,80.88,59.95-13.84,122.53-31.08,184.15-15.92,68.63,13.14,124.76,59.24,168,112.1,38.39,46.45,103.83,64.6,161.68,51,12.66-3.82,28.79-3.48,37.07-15.37-3-4.94-6.26-9.66-9.32-14.6C841.6,481.4,858.64,512.14,840.49,533.7Z"/><path class="cls-10" d="M376.64,405.53c26.29-6.74,53.55-9.59,80.67-6.6,46.11,6.81,86.79,39.29,106,81.36.35,2.5,1,7.65,1.32,10.22C541.32,444.48,497,407.2,444,404.28,421.43,401.29,399.11,407.83,376.64,405.53Z"/><path class="cls-11" d="M804.6,335.64c36.44,35.82,90.06,53.06,118.5,96.67-21.76-15-46.52-26.64-73.71-24.13C826.44,391.9,802,377.85,778.8,362.07,787.7,353.65,796.47,344.82,804.6,335.64Z"/><path class="cls-12" d="M352.93,19.72c29.21-22,74.41-25.87,103-.84C487.63,44.54,499,88.21,492.64,127.37l-4.45,2.15c.28-24.69.07-50.49-11.82-72.88C462.18,23.47,423-1.22,387,11.09c-43.74,12.59-72.94,53-86.09,94.65-11.61,26.84-4.31,63.42,23.65,76.56,7.3,23.37,28,44.16,53.61,44.58,18.36,1.88,35.26-6.95,50.42-16.34,12.52-5.7,25.45-10.64,37.83-17C447.65,237,396.6,270.2,349.24,253.31c-30.46-10.09-42.69-40.89-54.66-67.67-1.46-2.08-2.92-4.1-4.38-6.12C280.05,120.34,303,54.69,352.93,19.72Z"/><path class="cls-13" d="M393.06,45.72c19.88-5.21,41.37,4.52,53.75,20.31,35.05,49.51,10,128.86-45.55,151.18-30.53,13.29-65.92-9.94-71.7-41.23C313,125.63,339.51,59.84,393.06,45.72Zm-2.51,40.89h0L389,82.79c-37.48,19.68-51,83.31-15.37,110.78,2,18.5,30.6,14.81,26.08-4,.91,1.87,2.71,5.7,3.62,7.58,43.39-15.86,59.11-82.83,24.75-114.82-.69-10.22-7.58-21.63-18.84-21.83C396.88,61.65,387.14,74.31,390.55,86.61Z"/><path class="cls-14" d="M390.55,86.61c-3.41-12.3,6.33-25,18.71-26.07,11.26.2,18.15,11.61,18.84,21.83C424.77,102,394.52,109.77,390.55,86.61Z"/><path class="cls-15" d="M492.64,127.37c27-.7,54.59-4.39,81.29,2.08,31.44,10.09,59.67,29.07,83.59,51.6,1.18,1.25,3.55,3.9,4.73,5.15A108.79,108.79,0,0,0,655,197.67c-33-54.17-102.85-75.87-162.87-60.64C492.29,134.6,492.5,129.8,492.64,127.37Z"/><path class="cls-2" d="M662.25,186.2c23.3-31.85,56.47-65.51,99.52-61.06,48.4,5.49,76,57.79,73.57,102.71,2.3,39.57-12.31,90.69-57.86,97.5,28.79-29.07,44.72-71.56,36.51-112.24-5.63-23.43-19.89-47.77-44.3-55-19.4-4.31-41-2.08-57.16,10.3-37.14,26.77-53.48,77.33-43.32,121.42,0,2.08-.14,6.32-.21,8.41-21.49-15.58-30.18-42.7-25.25-68.29,4-10.71,7.1-21.63,11.27-32.27A108.79,108.79,0,0,1,662.25,186.2Z"/><path class="cls-16" d="M488.19,129.52l4.45-2.15c-.14,2.43-.35,7.23-.49,9.66C489.44,186.62,457,233.28,413.5,256.3c-29.69,13.28-67.87,9.87-92.28-12.8-18.29-14.19-21-38.94-35.47-56.05,2.92-.63,5.91-1.18,8.83-1.81,12,26.78,24.2,57.58,54.66,67.67C396.6,270.2,447.65,237,466.42,193.57,479,174.52,487.7,152.54,488.19,129.52Z"/><path class="cls-17" d="M735.06,163.32c24.55-8.35,53.06,4,64.26,27.33,22.46,40,9.66,90.89-20.8,123.16-20.3,26.35-65.5,33.59-87.34,5.28C652.52,269.93,675.88,185,735.06,163.32Zm2.71,36.37h0c-39.36,17.59-50.55,80.6-18.36,110.5l2.58-3.13c-1,18.15,18.7,20.72,27.4,7.16,44.64-15.09,62.31-84.14,25.45-116C777.62,170.2,733.32,172.64,737.77,199.69Z"/><path class="cls-18" d="M737.77,199.69c-4.45-27.05,39.85-29.49,37.07-1.46-2.5,10.64-10.85,17.52-20.17,22.25C746.67,215.68,737.5,210.4,737.77,199.69Z"/><path class="cls-19" d="M907.8,403c-30.8-24.62-64-46.11-96.24-68.43-2.58-1.25-5.22-2.36-7.79-3.41l.83,4.38c36.51,35.82,90,53.06,118.5,96.67-21.76-14.89-46.45-26.57-73.78-24.06-48.06,4.93-98.13,32.61-145.2,8.69C629.71,389.26,598.2,303,522.26,278.34c-63.42-17.45-128.51,3.9-192.56,4.1a124.5,124.5,0,0,1-85.19-31.29c-28.93-25.66-59.45-50-95.82-64.26,45.55,2.79,91.93,13.43,137.13.63,2.85-.77,5.84-1.25,8.83-1.88-1.46-2-3-4.1-4.45-6.12-68.43,21-141.31-15.44-208.76,11.27C28.24,210.61-2.71,269.51.21,324.59c.07,72.6,47.29,135.67,102.37,178.72C176.43,565.48,254,633.28,288.67,726v.14c.63,1.32,1.05,2.64,1.53,4s1.12,4.52,1.53,6c12.24-32.26,45-52.64,78-57.72,38.46-4.93,77,18.5,93.18,53.27l6.89-.83C445.7,667.7,356,651.92,309.4,699.42c-5.85,5.56-11.27,11.61-16.83,17.45-41-94.92-121.28-164.12-199-228.79C36.65,440.3-8.55,364.71,10,288.29c6.75-35.19,27.89-68.23,59.6-85.61,27-11.61,58.41-16,86.3-4.94,54,17.39,84.49,75,140.75,87.49,70,12.37,140.2-18,210.16-4.25,43.6,8.56,76.63,40.89,105.07,72.81,31.09,34.77,69,66.35,115.44,77.26,45.2,9.32,87.35-18.08,132.55-15.5,23.16-.91,44.09,10.78,61.06,25.45,7.37,6.54,15.85,13,19.19,22.67,8.21,39.5-2.16,82.89-30.53,112.17-28.58,28.65-66.76,46.8-106.4,53.9-14,2.78-28.72,5.49-40.75,13.83-29.55,22.19-66.48,44.93-69.4,86a71.79,71.79,0,0,0-1.18,7.09c-3.27,26.43-.14,55.15,13.56,78.58,17.1-12.45,31.71-27.88,44.5-44.85,5,27.88,7.72,56.74,20,82.61,34.91-14.95,52.51-51.81,61.55-86.72,10.08,17,19.4,35.54,36.85,46,14.61-22,20.73-49.37,18.36-75.52-.42-2.36-.83-4.73-1.25-7-7.65-56.4-72.11-92.56-125-77.54C776.65,636.41,801,638.64,821.22,632c50.49-13.91,101.4-45.06,120-96.31C954.81,490,949.88,432.45,907.8,403ZM841.18,673.41h0c42.49,25.45,49,86.44,24.69,126.77-16.48-14.67-23.23-36.23-36-53.48-10.16,14.68-7.86,36-19.54,50.63-4.8,19.4-19.06,34.56-35.61,44.92-6.26-10.64-8.83-22.94-9.32-35.32-4.31-16.69-7.93-33.87-7.72-51.19-2.43-.41-4.8-.83-7.16-1.11-10,19.4-25.38,35.4-41.86,49.38a53.35,53.35,0,0,1-7-23.51c-9.73-35.33-3.48-78.44,26.43-102.57C759.12,650,807.66,649.62,841.18,673.41Z"/><path class="cls-20" d="M373.65,193.57c3.69-12.17,21.84-20,26.08-4C404.25,208.38,375.6,212.07,373.65,193.57Z"/><path class="cls-21" d="M649,333.14c-11.68-30.46-25.59-68.08-7.3-98.54-2.65,45.69-.21,101.74,42.9,129.14,40.62,25.52,91.59,1.25,119.13-32.55l.83,4.45c-8.13,9.18-16.9,18-25.8,26.43C738.4,397.26,670.74,381.68,649,333.14Z"/><path class="cls-22" d="M110.72,294.4c2.64-21.34,35-38.94,51-25-4.45.83-8.83,1.67-13.21,2.5-1.88.42-5.5,1.26-7.37,1.6,9.38,52.3,61.12,90.41,112.58,93.68,51.53-1.46,100.35-23.23,152.09-23.16,66.27-3.48,132.13,24.76,178.58,71.42,30.39,29.41,54.11,67.45,93.4,86.23,50.07,24.13,109.18,16.69,159-4-2.57-4.39-4.94-8.84-7.51-13.08-3.06-4.94-6.33-9.73-9.46-14.6,21.7,11.47,38.81,42.21,20.59,63.7,1.18-9.81,2-19.75.41-29.56-52.85,21.77-115.57,29.7-168.15,3-43.6-21.62-68.22-65.44-103.75-96.66-53-46.73-127.75-70.31-197.57-55.84-29.7,3.41-58.21,13.07-87.83,17.11-64.12,14.46-136-31.3-149.66-95.69C124.9,280.29,118,287.8,110.72,294.4Z"/><path class="cls-23" d="M141.18,273.47c1.87-.34,5.49-1.18,7.37-1.6C162.94,325.56,223,366,278.38,352.68c60-13.77,122.6-31.08,184.08-15.85C531.23,350,587.35,396,630.54,448.93c38.32,46.45,103.9,64.6,161.68,51,12.66-3.75,28.73-3.55,37.14-15.37,2.57,4.24,4.94,8.69,7.51,13.08-49.86,20.72-109,28.16-159,4-39.29-18.78-63-56.82-93.4-86.23C538,368.75,472.12,340.51,405.85,344c-51.74-.07-100.56,21.7-152.09,23.16C202.3,363.88,150.56,325.77,141.18,273.47Z"/><path class="cls-24" d="M93.61,488.15C36.65,440.3-8.55,364.71,9.88,288.29c6.33,30,11.54,60.84,26,88.31,25.45,53.34,72,91.94,116.69,128.59,61.41,56,125.59,115.44,156.75,194.23C303.55,705,298.06,711,292.5,716.87,251.68,621.88,171.22,552.82,93.61,488.15Z"/><path class="cls-25" d="M722,307.06c4.1-8.76,12.93-10.29,21.62-10.08,1.95,5.7,3.83,11.47,5.78,17.24C740.69,327.78,721,325.21,722,307.06Z"/><path class="cls-26" d="M332.07,421.74a74.72,74.72,0,0,1,44.57-16.21c22.47,2.3,44.79-4.24,67.32-1.25,53,2.92,97.36,40.2,120.65,86.23-.34-2.57-1-7.72-1.32-10.22,11.76,12.87,15.86,31.71,15.58,48.82C527.76,448.93,424.42,411.51,332.07,421.74Z"/><path class="cls-27" d="M909.54,575.84c-28.58,28.65-66.76,46.8-106.4,53.9-14,2.78-28.72,5.49-40.75,13.83-29.55,22.19-66.76,46-69.61,87.07-8.83.35-17.59,0-26.29.07C670.6,688,681.1,635.65,724,615.27c58.28-14.26,123.79-18.71,170-61.61,32.13-27.47,38.18-73.79,26.92-112.66,7.37,6.54,15.85,13,19.19,22.67C948.28,503.17,937.91,546.56,909.54,575.84Z"/><path class="cls-3" d="M285.47,736.34l6.26-.28c-8.83,28.73-5.77,60.16,9.95,85.89,15-15.65,24.13-35.54,35.88-53.55,6,14.12,9.18,29.21,14.81,43.46,7.31,21.77,21.28,42.29,42.42,52.58,2-8.28,4-16.48,5.71-24.83,3.61-19.19,7-38.45,9.52-57.79,1.12-3.68,2.3-7.37,3.48-11,11.13,21.69,26.77,41.51,47.71,54.59,1.8-7.86,3.68-15.65,5.14-23.51a167.24,167.24,0,0,0-1.6-67.25l7.1,1.67c5.84,32.34,9,70.87-10.37,99-18.49-9.94-30.73-27.75-44.78-42.77-3.55,28-7.16,57-20.59,82.2-33.1-16.48-51.87-51.25-60-85.95-12.1,15.5-19.47,36.78-39.08,44.71C280.68,804.28,275,768.54,285.47,736.34Z"/><path class="cls-28" d="M710,789.61C729.36,774,741.11,752.06,757.45,734c.14,7.16.28,14.53.28,21.83-2.5-.48-4.94-.83-7.3-1.18C740.49,774,725.19,790,708.7,803.94a51.19,51.19,0,0,1-7-23.51C704.39,783.56,707.17,786.55,710,789.61Z"/><path class="cls-29" d="M410,781.82c.28-8.13.63-16.13,1.39-24.2,13.08,19.13,27.19,37.69,45.28,52.3,3.19-2.71,6.39-5.36,9.66-8-1.46,7.86-3.34,15.65-5.14,23.51-20.94-13.08-36.58-32.9-47.71-54.59C412.32,774.45,411.14,778.14,410,781.82Z"/><path class="cls-30" d="M775.74,824.87a140.89,140.89,0,0,0,34.57-27.54c-4.8,19.33-19.13,34.56-35.61,45-6.26-10.77-8.83-23.08-9.32-35.39C768.58,813.05,772.2,818.89,775.74,824.87Z"/><path class="cls-31" d="M352.37,811.86c10.23,13.08,21.35,25.87,35.82,34.43q6-3.35,12.31-6.68c-1.74,8.35-3.69,16.55-5.71,24.83C373.65,854.15,359.68,833.63,352.37,811.86Z"/></g></g></svg>