<svg id="Layer_1" data-name="Layer 1" xmlns="http://www.w3.org/2000/svg" viewBox="0 0 948 873.17"><defs><style>.cls-1{fill:none;stroke:#e0e1e0;stroke-miterlimit:10;stroke-width:2.99px;}.cls-2{fill:#fdfdf6;}.cls-3{fill:#374432;}.cls-4{fill:#55b152;}.cls-5{fill:#2f312e;}.cls-6{fill:#86c44c;}.cls-7{fill:#85c44c;}.cls-8{fill:#afbdaf;}.cls-9{fill:#f7f3a8;}.cls-10{fill:#518c4a;}.cls-11{fill:#54b052;}.cls-12{fill:#aebdb0;}.cls-13{fill:#aed144;}.cls-14{fill:#fcfcf2;}.cls-15{fill:#435a38;}.cls-16{fill:#83b757;}.cls-17{fill:#add144;}.cls-18{fill:#fcfcf1;}.cls-19{fill:#3a4832;}.cls-20{fill:#fafbee;}.cls-21{fill:#7fb653;}.cls-22{fill:#5e7d44;}.cls-23{fill:#dee576;}.cls-24{fill:#d6e267;}.cls-25{fill:#f9faec;}.cls-26{fill:#d7e166;}.cls-27{fill:#d7e163;}.cls-28{fill:#5ab051;}.cls-29{fill:#5baf51;}.cls-30{fill:#56af51;}.cls-31{fill:#58af51;}</style></defs><title>Blink Eyes Position</title><g id="Layer_1-2" data-name="Layer_1"><g id="_2889755697472" data-name=" 2889755697472"><line class="cls-1" x1="289.18" y1="732.2" x2="697.18" y2="732.2"/></g><g id="_2889755697984" data-name=" 2889755697984"><path class="cls-2" d="M389.25,11.54C425.2-.77,464.42,23.92,478.61,57.09c11.89,22.39,12.1,48.19,11.82,72.88-.49,23-9.18,45-21.77,64.05-12.37,6.33-25.31,11.26-37.83,17,37.21-36.37,54.8-98.41,24.9-144.51C439.6,39.36,402,32,375.34,47.35c-45.27,26.29-65.58,86.38-48.54,135.4-28-13.14-35.26-49.72-23.64-76.56C316.3,64.53,345.51,24.13,389.25,11.54Z"/><path class="cls-3" d="M294,736.51c-1.53.07-4.73.28-6.26.28h0c.41-1.81,2.36-8.34,3.13-10.57l1.6,4.31C292.86,732,293.56,735.05,294,736.51Z"/><path class="cls-3" d="M474.09,736.79c-1.74-.42-5.36-1.25-7.09-1.74l-1.81-3,6.88-.83Z"/><path class="cls-4" d="M375.34,47.35C402,32,439.6,39.36,455.73,66.48c29.9,46.1,12.31,108.14-24.9,144.51-15.16,9.38-32.06,18.22-50.41,16.34-25.6-.42-46.32-21.21-53.62-44.58C309.76,133.73,330.07,73.64,375.34,47.35Zm20-1.18h0c-53.55,14.12-80,79.91-63.49,130.25,5.77,31.3,41.16,54.52,71.69,41.24C459.07,195.34,484.1,116,449.05,66.48,436.68,50.69,415.19,41,395.3,46.17Z"/><path class="cls-4" d="M714.77,168.84c16.14-12.37,37.76-14.6,57.17-10.29,24.4,7.23,38.66,31.57,44.29,55,8.21,40.68-7.72,83.17-36.51,112.24-13.28,8.41-26.77,18.85-43.25,18.85-31.78,2.5-59.18-24.41-65-54.39C661.29,246.17,677.64,195.62,714.77,168.84Zm22.53-5.07h0c-59.18,21.62-82.54,106.6-43.88,155.77,21.84,28.3,67,21.07,87.35-5.28C811.23,282,824,231.15,801.56,191.1,790.36,167.8,761.85,155.42,737.3,163.77Z"/><path class="cls-5" d="M375.9,194c-35.61-27.47-22.12-91.1,15.36-110.78l1.53,3.82c4,23.16,34.22,15.37,37.56-4.24,34.35,32,18.63,99-24.76,114.81-.9-1.87-2.71-5.7-3.62-7.58C397.73,174.06,379.58,181.85,375.9,194Z"/><path class="cls-5" d="M721.66,310.64c-32.2-29.9-21-92.91,18.36-110.5-.28,10.71,8.9,16,16.89,20.79,9.32-4.73,17.67-11.61,20.17-22.25,36.86,31.85,19.2,100.9-25.45,116-2-5.77-3.83-11.54-5.77-17.24-8.7-.21-17.53,1.32-21.63,10.08Z"/><path class="cls-6" d="M730.21,678.38c31.09-28,79.63-28.24,113.21-4.45,42.56,25.38,49,86.44,24.69,126.7C851.7,786,845,764.4,832.09,747.15c-10.22,14.68-7.86,36-19.54,50.63A141,141,0,0,1,778,825.32c-3.55-6-7.17-11.82-10.37-17.94-4.38-16.69-7.85-33.8-7.65-51.12,0-7.3-.13-14.67-.27-21.83-16.35,18.08-28.1,40.05-47.43,55.63-2.85-3.06-5.63-6-8.35-9.18C694.12,745.62,700.45,702.51,730.21,678.38Z"/><path class="cls-6" d="M371.93,678.79c38.53-4.86,77.05,18.43,93.26,53.27l1.81,3.06a167.24,167.24,0,0,1,1.59,67.25c-3.26,2.64-6.46,5.28-9.66,8-18.08-14.61-32.2-33.18-45.27-52.3-.77,8.07-1.12,16.06-1.39,24.2-2.51,19.33-5.92,38.6-9.53,57.79q-6.25,3.35-12.31,6.68c-14.46-8.56-25.59-21.35-35.81-34.43C349,798.06,345.78,783,339.8,768.85c-11.75,18-20.86,37.9-35.88,53.55-15.72-25.73-18.78-57.17-9.94-85.89C306.21,704.31,338.9,683.87,371.93,678.79Z"/><path class="cls-7" d="M494.39,137.48c60-15.23,129.91,6.47,162.87,60.64-4.17,10.64-7.3,21.56-11.26,32.27-.56,1.11-1.53,3.48-2,4.66-18.29,30.46-4.38,68.08,7.3,98.54,21.7,48.54,89.36,64.12,129.77,28.93,23.22,15.78,47.63,29.83,70.58,46.1-48,4.94-98.12,32.62-145.34,8.7-74.41-27.61-105.84-113.77-181.78-138.53-63.43-17.46-128.52,3.82-192.56,4a124.52,124.52,0,0,1-85.19-31.22c-28.93-25.66-59.46-49.93-95.83-64.26,45.62,2.78,91.93,13.49,137.06.56,14.47,17.11,17.18,41.86,35.47,56,24.41,22.67,62.59,26.08,92.28,12.79C459.28,233.73,491.68,187.06,494.39,137.48Z"/><path class="cls-8" d="M659.76,181.5c20.59-28.58,47.64-55.77,83.8-62.24,36.93-6.75,74.2,17.18,88.81,50.7,17.66,38.59,15.78,84.63.28,123.57C827.36,307.86,817.28,320,813.8,335c-2.64-1.18-5.22-2.3-7.79-3.34-27.54,33.8-78.51,58.07-119.12,32.55-43.12-27.4-45.55-83.45-42.91-129.14.49-1.18,1.46-3.55,2-4.66-4.94,25.59,3.75,52.71,25.24,68.29.07-2.09.21-6.33.21-8.42,5.84,30,33.24,56.89,65,54.39,16.48,0,30-10.44,43.25-18.85,45.55-6.82,60.16-57.93,57.86-97.5C840,183.38,812.41,131.08,764,125.59c-43-4.45-76.22,29.21-99.52,61.06C663.31,185.39,661,182.75,659.76,181.5Z"/><path class="cls-9" d="M923.12,441.45c-17-14.68-37.9-26.36-61.06-25.45-45.2-2.58-87.34,24.82-132.54,15.5-46.46-10.92-84.36-42.49-115.44-77.26C585.63,322.32,552.6,290,509,281.43c-70-13.77-140.2,16.62-210.16,4.24-56.26-12.44-86.72-70.09-140.75-87.48-27.89-11.06-59.32-6.68-86.3,4.94-31.71,17.38-52.85,50.42-59.6,85.6,6.26,30,11.48,60.85,25.94,88.25,25.45,53.41,72,91.94,116.69,128.72C216.23,561.62,280.41,621,311.64,699.86c46.59-47.49,136.3-31.71,160.43,31.37,65.58-1.53,131.37.21,197-.07,4.11-42.7,14.26-95.07,57.17-115.44C784.52,601.46,850,597,896.21,554.1,928.34,526.64,934.39,480.32,923.12,441.45ZM334.31,422.11h0a75.72,75.72,0,0,1,44.58-16.2c26.28-6.67,53.54-9.53,80.66-6.54,46.18,6.89,86.79,39.3,106,81.37,11.68,12.86,15.92,31.71,15.57,48.89C530.07,449.38,426.66,412,334.31,422.11Zm508.42,112h0c1.11-9.88,1.95-19.82.42-29.63-52.86,21.7-115.58,29.7-168.22,3-43.47-21.63-68.16-65.44-103.76-96.66C518.25,364.19,443.49,340.54,373.74,355c-29.76,3.4-58.28,13.07-87.83,17.17-64.19,14.33-136-31.29-149.72-95.76-9,4.32-15.93,11.83-23.23,18.36,2.64-21.21,35-38.87,51-25q-6.67,1.24-13.14,2.5c14.32,53.69,74.41,94.23,129.76,80.88,59.95-13.84,122.54-31.09,184.15-15.93,68.64,13.15,124.76,59.25,168,112.11,38.39,46.45,103.83,64.6,161.69,51,12.65-3.83,28.79-3.48,37.06-15.37-3-4.94-6.26-9.67-9.32-14.6C843.84,481.85,860.88,512.59,842.73,534.15Z"/><path class="cls-10" d="M378.89,406c26.28-6.74,53.54-9.6,80.66-6.61,46.11,6.82,86.79,39.3,106,81.37.34,2.5,1,7.65,1.32,10.22-23.3-46-67.67-83.31-120.66-86.23C423.67,401.74,401.35,408.28,378.89,406Z"/><path class="cls-11" d="M806.85,336.09c36.44,35.82,90,53.06,118.49,96.66-21.76-14.95-46.52-26.63-73.71-24.13-23-16.27-47.36-30.32-70.58-46.1C790,354.1,798.71,345.27,806.85,336.09Z"/><path class="cls-12" d="M355.17,20.16c29.21-22,74.41-25.87,103-.83,31.71,25.66,43,69.33,36.72,108.48L490.43,130c.28-24.69.07-50.49-11.82-72.88C464.42,23.92,425.2-.77,389.25,11.54c-43.74,12.59-72.95,53-86.09,94.65-11.62,26.84-4.32,63.42,23.64,76.56,7.3,23.37,28,44.16,53.62,44.58,18.35,1.88,35.25-7,50.41-16.34,12.52-5.71,25.46-10.64,37.83-17-18.77,43.39-69.82,76.63-117.17,59.73-30.46-10.08-42.7-40.89-54.66-67.66-1.46-2.09-2.92-4.1-4.38-6.12C282.29,120.79,305.24,55.14,355.17,20.16Z"/><path class="cls-13" d="M395.3,46.17c19.89-5.21,41.38,4.52,53.75,20.31,35.05,49.51,10,128.86-45.55,151.18-30.53,13.28-65.92-9.94-71.69-41.24C315.26,126.08,341.75,60.29,395.3,46.17Zm-2.51,40.89h0l-1.53-3.82c-37.48,19.68-51,83.31-15.36,110.78,1.94,18.5,30.59,14.81,26.07-4,.91,1.88,2.72,5.71,3.62,7.58C449,181.78,464.7,114.81,430.35,82.82c-.7-10.22-7.58-21.63-18.85-21.84C399.12,62.1,389.39,74.75,392.79,87.06Z"/><path class="cls-14" d="M392.79,87.06c-3.4-12.31,6.33-25,18.71-26.08,11.27.21,18.15,11.62,18.85,21.84C427,102.43,396.76,110.22,392.79,87.06Z"/><path class="cls-15" d="M494.88,127.81c27-.69,54.59-4.38,81.3,2.09C607.61,140,635.84,159,659.76,181.5c1.19,1.25,3.55,3.89,4.73,5.15a110.44,110.44,0,0,0-7.23,11.47c-33-54.17-102.85-75.87-162.87-60.64C494.53,135.05,494.74,130.25,494.88,127.81Z"/><path class="cls-2" d="M664.49,186.65C687.79,154.8,721,121.14,764,125.59c48.4,5.49,76,57.79,73.57,102.71,2.3,39.57-12.31,90.68-57.86,97.5,28.79-29.07,44.72-71.56,36.51-112.24-5.63-23.44-19.89-47.78-44.29-55-19.41-4.31-41-2.08-57.17,10.29-37.13,26.78-53.48,77.33-43.32,121.42,0,2.09-.14,6.33-.21,8.42C649.75,283.1,641.06,256,646,230.39c4-10.71,7.09-21.63,11.26-32.27A110.44,110.44,0,0,1,664.49,186.65Z"/><path class="cls-16" d="M490.43,130l4.45-2.16c-.14,2.44-.35,7.24-.49,9.67-2.71,49.58-35.11,96.25-78.65,119.26C386.05,270,347.87,266.62,323.46,244c-18.29-14.19-21-38.94-35.47-56,2.93-.63,5.92-1.18,8.84-1.81,12,26.77,24.2,57.58,54.66,67.66,47.35,16.9,98.4-16.34,117.17-59.73C481.25,175,489.94,153,490.43,130Z"/><path class="cls-17" d="M737.3,163.77c24.55-8.35,53.06,4,64.26,27.33C824,231.15,811.23,282,780.77,314.26c-20.31,26.35-65.51,33.58-87.35,5.28C654.76,270.37,678.12,185.39,737.3,163.77ZM740,200.14h0c-39.36,17.59-50.56,80.6-18.36,110.5l2.57-3.13c-1,18.15,18.71,20.72,27.4,7.16,44.65-15.09,62.31-84.14,25.45-116C779.86,170.65,735.57,173.09,740,200.14Z"/><path class="cls-18" d="M740,200.14c-4.45-27,39.84-29.49,37.06-1.46-2.5,10.64-10.85,17.52-20.17,22.25C748.92,216.13,739.74,210.85,740,200.14Z"/><path class="cls-19" d="M910.05,403.48c-30.81-24.62-64-46.11-96.25-68.43-2.57-1.25-5.22-2.37-7.79-3.41l.84,4.38c36.51,35.82,90,53.06,118.49,96.67-21.76-14.89-46.45-26.57-73.78-24.07-48,4.94-98.12,32.62-145.2,8.7C632,389.71,600.45,303.48,524.51,278.79,461.08,261.33,396,282.68,332,282.89a124.47,124.47,0,0,1-85.19-31.29c-28.93-25.66-59.46-50-95.83-64.26,45.55,2.78,91.93,13.42,137.13.63,2.86-.77,5.85-1.25,8.84-1.88-1.46-2-3-4.1-4.45-6.12C224,201,151.14,164.53,83.68,191.24,30.48,211.06-.46,270,2.46,325c.07,72.61,47.29,135.68,102.36,178.73,73.86,62.17,151.39,130,186.1,222.67v.14c.62,1.32,1,2.64,1.53,4s1.11,4.52,1.53,6c12.23-32.26,45-52.64,78-57.72,38.46-4.93,77,18.5,93.19,53.27l6.88-.83c-24.13-63.08-113.84-78.86-160.43-31.37-5.84,5.57-11.27,11.62-16.83,17.46-41-94.93-121.28-164.12-199-228.79C38.9,440.75-6.31,365.16,12.19,288.73c6.75-35.18,27.89-68.22,59.6-85.6,27-11.62,58.41-16,86.3-4.94,54,17.39,84.49,75,140.75,87.48,70,12.38,140.2-18,210.16-4.24,43.6,8.56,76.63,40.89,105.08,72.81,31.08,34.77,69,66.34,115.44,77.26,45.2,9.32,87.34-18.08,132.54-15.5,23.16-.91,44.09,10.77,61.06,25.45,7.37,6.53,15.85,13,19.19,22.67,8.21,39.5-2.15,82.89-30.53,112.17-28.58,28.65-66.76,46.8-106.39,53.89-14,2.79-28.73,5.5-40.76,13.84-29.55,22.19-66.48,44.93-69.4,86-.49,2.22-.9,4.72-1.18,7.09-3.27,26.42-.14,55.15,13.56,78.58,17.11-12.45,31.71-27.89,44.51-44.85,5,27.88,7.72,56.74,20,82.61,34.91-15,52.51-51.81,61.55-86.72,10.08,17,19.4,35.54,36.86,46,14.6-22,20.72-49.37,18.35-75.52-.41-2.37-.83-4.73-1.25-7-7.65-56.39-72.11-92.56-125-77.54,16.2-15.85,40.54-13.63,60.78-20.3,50.48-13.91,101.39-45.06,120-96.32C957.06,490.47,952.12,432.89,910.05,403.48ZM843.42,673.86h0c42.49,25.45,49,86.44,24.69,126.77-16.48-14.67-23.23-36.23-36-53.48-10.15,14.68-7.86,36-19.54,50.63-4.8,19.4-19.06,34.56-35.61,44.92-6.26-10.64-8.83-23-9.32-35.32-4.31-16.69-7.92-33.87-7.71-51.19-2.44-.41-4.8-.83-7.17-1.11-9.94,19.4-25.38,35.4-41.86,49.37a53.4,53.4,0,0,1-7-23.5c-9.73-35.33-3.47-78.44,26.43-102.57C761.37,650.42,809.91,650.07,843.42,673.86Z"/><path class="cls-20" d="M375.9,194c3.68-12.17,21.83-20,26.07-4C406.49,208.83,377.84,212.52,375.9,194Z"/><path class="cls-21" d="M651.28,333.59c-11.68-30.46-25.59-68.08-7.3-98.54-2.64,45.69-.21,101.74,42.91,129.14,40.61,25.52,91.58,1.25,119.12-32.55l.84,4.45c-8.14,9.18-16.9,18-25.8,26.43C740.64,397.71,673,382.13,651.28,333.59Z"/><path class="cls-22" d="M113,294.85c2.64-21.35,35-38.94,51-25-4.45.83-8.83,1.67-13.21,2.5-1.88.42-5.49,1.25-7.37,1.6,9.39,52.3,61.12,90.41,112.59,93.67,51.53-1.46,100.34-23.22,152.08-23.15,66.28-3.48,132.13,24.75,178.59,71.42,30.39,29.41,54.1,67.45,93.39,86.23,50.07,24.13,109.18,16.69,159-4-2.57-4.38-4.93-8.83-7.51-13.07-3.06-4.94-6.33-9.74-9.46-14.6,21.7,11.47,38.81,42.21,20.59,63.7,1.18-9.81,2-19.75.42-29.56-52.86,21.77-115.58,29.7-168.16,3-43.6-21.63-68.22-65.44-103.75-96.66-53-46.73-127.75-70.31-197.57-55.84-29.69,3.4-58.21,13.07-87.83,17.1-64.12,14.47-135.95-31.29-149.65-95.69C127.15,280.74,120.26,288.25,113,294.85Z"/><path class="cls-23" d="M143.42,273.92c1.88-.35,5.49-1.18,7.37-1.6,14.39,53.69,74.41,94.16,129.83,80.81,60-13.77,122.61-31.09,184.08-15.86,68.78,13.22,124.9,59.18,168.08,112.11,38.32,46.45,103.9,64.6,161.69,51,12.65-3.76,28.72-3.55,37.13-15.37,2.58,4.24,4.94,8.69,7.51,13.07-49.86,20.73-109,28.17-159,4-39.29-18.78-63-56.82-93.39-86.23-46.46-46.67-112.31-74.9-178.59-71.42-51.74-.07-100.55,21.69-152.08,23.15C204.54,364.33,152.81,326.22,143.42,273.92Z"/><path class="cls-24" d="M95.85,488.6C38.9,440.75-6.31,365.16,12.12,288.73c6.33,30,11.55,60.85,26,88.32,25.45,53.34,72,91.94,116.69,128.58,61.41,56,125.59,115.44,156.75,194.23-5.77,5.57-11.27,11.62-16.83,17.46C253.92,622.33,173.46,553.27,95.85,488.6Z"/><path class="cls-25" d="M724.23,307.51c4.1-8.76,12.93-10.29,21.63-10.08,1.94,5.7,3.82,11.47,5.77,17.24C742.94,328.23,723.26,325.66,724.23,307.51Z"/><path class="cls-26" d="M334.31,422.18A74.8,74.8,0,0,1,378.89,406c22.46,2.3,44.78-4.24,67.31-1.25,53,2.92,97.36,40.19,120.66,86.23-.35-2.57-1-7.72-1.32-10.22,11.75,12.86,15.85,31.71,15.57,48.82C530,449.38,426.66,412,334.31,422.18Z"/><path class="cls-27" d="M911.78,576.29c-28.58,28.65-66.76,46.8-106.39,53.89-14,2.79-28.73,5.5-40.76,13.84-29.55,22.19-66.76,46-69.61,87.07-8.83.35-17.59,0-26.28.07,4.1-42.7,14.6-95.07,57.51-115.44C784.52,601.46,850,597,896.21,554.1c32.13-27.46,38.18-73.78,26.91-112.65,7.37,6.53,15.85,13,19.19,22.67C950.52,503.62,940.16,547,911.78,576.29Z"/><path class="cls-3" d="M287.72,736.79l6.26-.28c-8.84,28.72-5.78,60.16,9.94,85.89,15-15.65,24.13-35.54,35.88-53.55,6,14.12,9.18,29.21,14.82,43.46,7.3,21.77,21.28,42.28,42.42,52.58,2-8.28,4-16.48,5.7-24.83,3.61-19.19,7-38.46,9.53-57.79,1.11-3.68,2.29-7.37,3.47-11,11.13,21.7,26.78,41.52,47.71,54.59,1.81-7.85,3.68-15.64,5.14-23.5A167.24,167.24,0,0,0,467,735.12c1.8.42,5.35,1.25,7.09,1.67,5.84,32.34,9,70.86-10.36,99-18.5-10-30.74-27.75-44.79-42.77-3.54,28-7.16,57-20.58,82.2-33.1-16.48-51.88-51.25-60-86-12.1,15.51-19.47,36.79-39.08,44.72C282.92,804.73,277.22,769,287.72,736.79Z"/><path class="cls-28" d="M712.27,790.06c19.33-15.58,31.08-37.55,47.43-55.63.14,7.16.27,14.53.27,21.83-2.5-.48-4.93-.83-7.3-1.18-9.94,19.4-25.24,35.33-41.72,49.31a51.2,51.2,0,0,1-7-23.51C706.64,784,709.42,787,712.27,790.06Z"/><path class="cls-29" d="M412.27,782.27c.27-8.14.62-16.13,1.39-24.2,13.07,19.12,27.19,37.69,45.27,52.3,3.2-2.72,6.4-5.36,9.66-8-1.46,7.86-3.33,15.65-5.14,23.5-20.93-13.07-36.58-32.89-47.71-54.59C414.56,774.9,413.38,778.59,412.27,782.27Z"/><path class="cls-30" d="M778,825.32a141,141,0,0,0,34.56-27.54c-4.8,19.33-19.13,34.56-35.61,45-6.26-10.78-8.83-23.09-9.32-35.39C770.82,813.5,774.44,819.34,778,825.32Z"/><path class="cls-31" d="M354.62,812.31c10.22,13.08,21.35,25.87,35.81,34.43q6-3.35,12.31-6.68c-1.74,8.35-3.69,16.55-5.7,24.83C375.9,854.59,361.92,834.08,354.62,812.31Z"/></g></g></svg>